# AST/ASF file generated using VICON BodyLanguage
# -----------------------------------------------
:version 1.10
:name VICON
:units
  mass 1.0
  length 0.45
  angle deg
:documentation
   .ast/.asf automatically generated from VICON data using
   VICON BodyBuilder and BodyLanguage model FoxedUp or BRILLIANT.MOD
:root
   order TX TY TZ RX RY RZ
   axis XYZ
   position 0 0 0  
   orientation 0 0 0 
:bonedata
  begin
     id 1 
     name lhipjoint
     direction 0.521689 -0.742065 0.420928 
     length 2.47002 
     axis 0 0 0  XYZ
  end
  begin
     id 2 
     name lfemur
     direction 0.34202 -0.939693 0  
     length 7.24654  
     axis 0 0 20  XYZ
    dof rx ry rz
    limits (-160.0 20.0)
           (-70.0 70.0)
           (-60.0 70.0)
  end
  begin
     id 3 
     name ltibia
     direction 0.34202 -0.939693 0   
     length 8.04849   
     axis 0 0 20   XYZ
    dof rx
    limits (-10.0 170.0)
  end
  begin
     id 4 
     name lfoot
     direction 0.0745411 -0.2048 0.975961   
     length 1.72367   
     axis -90 7.62852e-016 20   XYZ
    dof rx rz
    limits (-45.0 90.0)
           (-70.0 20.0)
  end
  begin
     id 5 
     name ltoes
     direction 1.53556e-011 -4.21901e-011 1   
     length 0.87311   
     axis -90 7.62852e-016 20   XYZ
    dof rx
    limits (-90.0 20.0)
  end
  begin
     id 6 
     name rhipjoint
     direction -0.52849 -0.738415 0.418857   
     length 2.48223  
     axis 0 0 0  XYZ 
  end
  begin
     id 7 
     name rfemur
     direction -0.34202 -0.939693 0   
     length 7.15571   
     axis 0 0 -20   XYZ
    dof rx ry rz
    limits (-160.0 20.0)
           (-70.0 70.0)
           (-70.0 60.0)
  end
  begin
     id 8 
     name rtibia
     direction -0.34202 -0.939693 0   
     length 7.81659   
     axis 0 0 -20   XYZ
    dof rx
    limits (-10.0 170.0)
 end
 begin
     id 9 
     name rfoot
     direction -0.0917348 -0.252039 0.963359   
     length 1.84382  
     axis -90 -7.62852e-016 -20   XYZ
    dof rx rz
    limits (-45.0 90.0)
           (-20.0 70.0)
  end
  begin
     id 10 
     name rtoes
     direction -1.53551e-011 -4.21879e-011 1   
     length 0.927771   
     axis -90 -7.62852e-016 -20   XYZ
    dof rx
    limits (-90.0 20.0)
  end
  begin
     id 11 
     name lowerback
     direction 0.00583058 0.999822 0.0179296   
     length 2.1429   
     axis 0 0 0   XYZ
    dof rx ry rz
    limits (-20.0 45.0)
           (-30.0 30.0)
           (-30.0 30.0)
  end
  begin
     id 12 
     name upperback
     direction -0.0137999 0.999752 -0.0175071   
     length 2.14252   
     axis 0 0 0   XYZ
    dof rx ry rz
    limits (-20.0 45.0)
           (-30.0 30.0)
           (-30.0 30.0)
  end
  begin
     id 13 
     name thorax
     direction -0.0158036 0.99955 -0.0254909   
     length 2.1383   
     axis 0 0 0   XYZ
    dof rx ry rz
    limits (-20.0 45.0)
           (-30.0 30.0)
           (-30.0 30.0)
  end
  begin
     id 14 
     name lowerneck
     direction -0.0101179 0.999403 -0.0330262   
     length 1.65808   
     axis 0 0 0   XYZ
    dof rx ry rz
    limits (-20.0 45.0)
           (-30.0 30.0)
           (-30.0 30.0)
  end
  begin
     id 15 
     name upperneck
     direction 0.0497734 0.995978 -0.074501   
     length 1.5897   
     axis 0 0 0   XYZ
    dof rx ry rz
    limits (-20.0 45.0)
           (-30.0 30.0)
           (-30.0 30.0)
  end
  begin
     id 16
     name head
     direction 0.0189524 0.999519 -0.0245438  
     length 1.74024  
     axis 0 0 0   XYZ
    dof rx ry rz
    limits (-20.0 45.0)
           (-30.0 30.0)
           (-30.0 30.0)
  end
  begin
     id 17 
     name lclavicle
     direction 0.945604 0.324422 0.0241537  
     length 3.59089  
     axis 0 0 0   XYZ
    dof ry rz
    limits (-20.0 10.0)
           (0.0 20.0)
  end
  begin
     id 18 
     name lhumerus
     direction 1 -4.48964e-011 -2.63524e-027   
     length 5.2391   
     axis 180 -30 -90   XYZ
    dof rx ry rz
    limits (-60.0 90.0)
           (-90.0 90.0)
           (-90.0 90.0)
  end
  begin
     id 19
     name lradius
     direction 1 -4.48969e-011 3.86978e-028   
     length 3.31467   
     axis 180 -30 -90   XYZ
    dof rx
    limits (-10.0 170.0)
  end
  begin
     id 20
     name lwrist
     direction 1 -4.48963e-011 7.20928e-028   
     length 1.65734   
     axis -5.52449e-016 90 90   XYZ
    dof ry
    limits (-180.0 0.0)
 end
  begin
     id 21 
     name lhand
     direction 1 -4.48964e-011 1.44186e-027   
     length 0.9659   
     axis -9.20027e-016 90 90   XYZ
    dof rx rz
    limits (-90.0 90.0)
           (-45.0 45.0)
  end
  begin
     id 22 
     name lfingers
     direction 1 -4.48965e-011 2.88371e-027   
     length 0.778733   
     axis -1.84005e-015 90 90   XYZ
    dof rx
    limits (0.0 90.0)
  end
  begin
     id 23
     name lthumb
     direction 0.707107 -6.34931e-011 0.707107   
     length 1.11811   
     axis -90 45 2.85299e-015   XYZ
    dof rx rz
    limits (-45.0 45.0)
           (-45.0 45.0)
  end
  begin
     id 24 
     name rclavicle
     direction -0.923762 0.370785 0.0958234   
     length 3.54196  
     axis 0 0 0   XYZ 
    dof ry rz
    limits (-10.0 20.0)
           (-20.0 0.0)
  end
  begin
     id 25 
     name rhumerus
     direction -1 -4.48966e-011 1.18702e-017  
     length 5.30252   
     axis 180 30 90   XYZ
    dof rx ry rz
    limits (-90.0 60.0)
           (-90.0 90.0)
           (-90.0 90.0)
  end
  begin
     id 26 
     name rradius
     direction -1 -4.48966e-011 4.46736e-027   
     length 3.67875   
     axis 180 30 90   XYZ
    dof rx
    limits (-10.0 170.0)
  end
  begin
     id 27 
     name rwrist
     direction -1 -4.48966e-011 7.20928e-028   
     length 1.83937   
     axis -5.52449e-016 -90 -90   XYZ
    dof ry
    limits (-180.0 0.0)
  end
  begin
     id 28
     name rhand
     direction -1 -4.48973e-011 1.44186e-027   
     length 0.594811   
     axis -9.20027e-016 -90 -90   XYZ
    dof rx rz
    limits (-90.0 90.0)
           (-45.0 45.0)
  end
  begin
     id 29
     name rfingers
     direction -1 -4.48963e-011 2.88371e-027   
     length 0.479552   
     axis -1.84005e-015 -90 -90   XYZ
    dof rx
    limits (0.0 90.0)
  end
  begin
     id 30
     name rthumb
     direction -0.707107 -6.34932e-011 0.707107   
     length 0.688544   
     axis -90 -45 -2.85299e-015   XYZ
    dof rx rz
    limits (-45.0 45.0)
           (-45.0 45.0)
  end
:hierarchy
  begin
    root lhipjoint rhipjoint lowerback
    lhipjoint lfemur
    lfemur ltibia
    ltibia lfoot
    lfoot ltoes
    rhipjoint rfemur
    rfemur rtibia
    rtibia rfoot
    rfoot rtoes
    lowerback upperback
    upperback thorax
    thorax lowerneck lclavicle rclavicle
    lowerneck upperneck
    upperneck head
    lclavicle lhumerus
    lhumerus lradius
    lradius lwrist
    lwrist lhand lthumb
    lhand lfingers
    rclavicle rhumerus
    rhumerus rradius
    rradius rwrist
    rwrist rhand rthumb
    rhand rfingers
  end

#!OML:ASF E:\acrobat2\Project_11_07_03\Capture day 1\Session 1\Acrobat.ASF
:FULLY-SPECIFIED
:DEGREES
223
root 10.2498 20.8219 -15.9792 1.92842 0.319773 -0.736474
lowerback -10.7928 -1.24278 0.990209
upperback -5.64023 -1.73149 -0.360032
thorax 0.137034 -0.891151 -1.11246
lowerneck 2.78534 -9.03092 -5.42308
upperneck 11.5908 -12.3635 1.65125
head 3.79484 -6.33151 1.11957
rclavicle 6.38596e-015 -7.65321e-015
rhumerus 79.1404 -37.702 -48.4799
rradius 18.8367
rwrist 7.73584
rhand -17.6419 -24.9694
rfingers 7.12502
rthumb 8.6159 -54.7736
lclavicle 6.38596e-015 -7.65321e-015
lhumerus 73.9666 31.9089 37.1227
lradius 21.1945
lwrist 0.206521
lhand -15.9269 -18.0631
lfingers 7.12502
lthumb 10.2706 11.6661
rfemur 6.91036 1.22799 20.5372
rtibia 4.01287
rfoot -19.6424 -6.1264
rtoes 14.7003
lfemur -7.51587 -2.33734 -16.4629
ltibia 28.1372
lfoot -24.4451 -10.706
ltoes 1.86456
224
root 10.2485 20.8211 -15.9805 1.91907 0.320791 -0.749744
lowerback -10.7732 -1.24442 0.999533
upperback -5.63709 -1.7344 -0.358507
thorax 0.129364 -0.892813 -1.11596
lowerneck 2.77165 -9.03815 -5.40535
upperneck 11.5792 -12.3702 1.63068
head 3.79045 -6.33458 1.10942
rclavicle 1.19271e-014 6.95746e-015
rhumerus 79.0052 -37.7039 -48.3099
rradius 18.8862
rwrist 7.61749
rhand -17.6695 -24.981
rfingers 7.12502
rthumb 8.58929 -54.7863
lclavicle 1.19271e-014 6.95746e-015
lhumerus 74.0486 31.9317 37.2557
lradius 21.1654
lwrist 0.0644767
lhand -15.9698 -18.0967
lfingers 7.12502
lthumb 10.2293 11.6346
rfemur 7.00257 1.22817 20.5441
rtibia 3.84906
rfoot -19.5806 -6.11685
rtoes 14.929
lfemur -7.52372 -2.32248 -16.4423
ltibia 28.1628
lfoot -24.4489 -10.6951
ltoes 1.82156
225
root 10.247 20.8205 -15.9817 1.91493 0.321035 -0.770672
lowerback -10.756 -1.25106 1.01058
upperback -5.644 -1.7442 -0.347192
thorax 0.112535 -0.897932 -1.11092
lowerneck 2.76892 -9.02564 -5.41961
upperneck 11.5867 -12.3537 1.63384
head 3.7943 -6.32691 1.11305
rclavicle 2.73577e-014 -6.75868e-015
rhumerus 78.8975 -37.6797 -48.1746
rradius 18.9283
rwrist 7.51712
rhand -17.7138 -24.9902
rfingers 7.12502
rthumb 8.54649 -54.7973
lclavicle 2.73577e-014 -6.75868e-015
lhumerus 74.0326 31.9418 37.2659
lradius 21.1609
lwrist 0.0203078
lhand -16.013 -18.1144
lfingers 7.12502
lthumb 10.1876 11.619
rfemur 7.0866 1.22906 20.5614
rtibia 3.6862
rfoot -19.5111 -6.11461
rtoes 15.1044
lfemur -7.53513 -2.31318 -16.4125
ltibia 28.184
lfoot -24.4546 -10.6822
ltoes 1.75886
226
root 10.2452 20.8202 -15.9823 1.91696 0.321179 -0.794952
lowerback -10.7443 -1.26256 1.01892
upperback -5.66147 -1.76027 -0.328271
thorax 0.087942 -0.906132 -1.09713
lowerneck 2.80236 -9.01575 -5.43886
upperneck 11.5679 -12.3404 1.62185
head 3.78131 -6.32177 1.11504
rclavicle 3.2551e-015 6.26172e-015
rhumerus 78.8027 -37.632 -48.0546
rradius 18.9647
rwrist 7.42145
rhand -17.7621 -25
rfingers 7.12502
rthumb 8.49993 -54.8089
lclavicle 3.2551e-015 6.26172e-015
lhumerus 73.9478 31.9371 37.1993
lradius 21.1708
lwrist 0.0471396
lhand -16.0477 -18.1286
lfingers 7.12502
lthumb 10.1542 11.6064
rfemur 7.1548 1.22965 20.5865
rtibia 3.54362
rfoot -19.4444 -6.1178
rtoes 15.2037
lfemur -7.5491 -2.31146 -16.3778
ltibia 28.1984
lfoot -24.4587 -10.6781
ltoes 1.71776
227
root 10.2432 20.8201 -15.9827 1.92432 0.322483 -0.814842
lowerback -10.7353 -1.2781 1.01727
upperback -5.68947 -1.78079 -0.305847
thorax 0.0541842 -0.916419 -1.07446
lowerneck 2.85289 -8.98688 -5.48446
upperneck 11.5639 -12.3057 1.63848
head 3.77398 -6.3064 1.13184
rclavicle -5.2181e-016 -3.57812e-015
rhumerus 78.7154 -37.5667 -47.9447
rradius 18.9966
rwrist 7.33366
rhand -17.8075 -25.0225
rfingers 7.12502
rthumb 8.45615 -54.8332
lclavicle -5.2181e-016 -3.57812e-015
lhumerus 73.8431 31.9188 37.1274
lradius 21.1789
lwrist 0.0876408
lhand -16.0821 -18.1522
lfingers 7.12502
lthumb 10.121 11.5844
rfemur 7.20053 1.22839 20.6117
rtibia 3.43674
rfoot -19.3918 -6.123
rtoes 15.2491
lfemur -7.56494 -2.31681 -16.3468
ltibia 28.2053
lfoot -24.4559 -10.688
ltoes 1.73399
228
root 10.2411 20.8199 -15.9829 1.93621 0.324746 -0.822191
lowerback -10.7281 -1.2954 1.00044
upperback -5.72404 -1.8022 -0.285812
thorax 0.0148928 -0.926928 -1.04575
lowerneck 2.92244 -8.9624 -5.52008
upperneck 11.5415 -12.2761 1.64043
head 3.75475 -6.2937 1.14355
rclavicle 1.07592e-014 -6.95746e-016
rhumerus 78.6303 -37.4942 -47.8379
rradius 19.0225
rwrist 7.25586
rhand -17.8554 -25.068
rfingers 7.12502
rthumb 8.40993 -54.8806
lclavicle 1.07592e-014 -6.95746e-016
lhumerus 73.7803 31.8952 37.1327
lradius 21.1695
lwrist 0.0662054
lhand -16.125 -18.1885
lfingers 7.12502
lthumb 10.0796 11.5501
rfemur 7.2233 1.22551 20.6267
rtibia 3.36788
rfoot -19.3608 -6.12301
rtoes 15.2808
lfemur -7.58263 -2.32457 -16.3289
ltibia 28.206
lfoot -24.4473 -10.7101
ltoes 1.79003
